{"title":"BBC Cherry's Body Dilemmas HD 720p x264 Cherrys [aularon]","uid":6624408,"size":1136138777,"categoryP":"video","categoryS":"hd___tv_shows","magnet":"?xt=urn:btih:a9b3e5109db26d87c4dba7be8bb20e3d3b134578&amp;dn=BBC+Cherry%5C%27s+Body+Dilemmas+HD+720p+x264+Cherrys+%5Baularon%5D&amp;tr=udp%3A%2F%2Ftracker.openbittorrent.com%3A80&amp;tr=udp%3A%2F%2Fopen.demonii.com%3A1337&amp;tr=udp%3A%2F%2Ftracker.coppersurfer.tk%3A6969&amp;tr=udp%3A%2F%2Fexodus.desync.com%3A6969","seeders":0,"leechers":1,"uploader":"aularon","files":-1,"time":1314059356,"description":"BBC Cherry's Body Dilemmas HD 720p x264 Cherrys aac mp4 w/subtitles [aularon]\n\n- - -\nSynopsis\n- - -\nCherry Healey is a slave to her bathroom scales. As her teenage diaries reveal, diets and looking thin has been a lifelong obsession. And with 37 per cent of women in the UK on a diet 'most or all of the time', she's not alone. Now Cherry wants to tackle her body neurosis, so she meets up with women of all shapes and sizes to find out what makes a body beautiful. From a bodybuilder to a fat and happy fashionista, from a nudist to a frustrated slimmer, Cherry takes a look at women's body hang-ups to see if she can get rid of her own demons once and for all.\n\n\n- - -\nURL\n- - -  &lt;a href=&quot;\nhttp://www.bbc.co.uk/programmes/b013y2b1&quot; rel=&quot;nofollow&quot; target=&quot;_NEW&quot;&gt;\nhttp://www.bbc.co.uk/programmes/b013y2b1&lt;/a&gt;\n\n\n- - -\nTechnical Details\n- - -\nGeneral\nComplete name                    : BBC.Cherrys.Body.Dilemmas/Cherrys_Body_Dilemmas_-_Cherrys_Body_Dilemmas_b013y2b1_default.mp4\nFormat                           : MPEG-4\nFormat profile                   : Base Media\nCodec ID                         : isom\nFile size                        : 1.06 GiB\nDuration                         : 56mn 59s\nOverall bit rate                 : 2 658 Kbps\nMovie name                       : Cherry's Body Dilemmas\nAlbum                            : Cherry's Body Dilemmas\nPerformer                        : Cherry's Body Dilemmas\nGenre                            : Factual,Lifestyle &amp; Leisure,Health &amp; Wellbeing\nRecorded date                    : 2011-08-22T21:00:00+01:00\nWriting application              : Lavf53.6.0\nCover                            : Yes\nComment                          : Recorded using get_iplayer, by Aularon.\nrtng                             : 4\nstik                             : 1\ndesc                             : Cherry Healey wants to tackle her body neurosis so she meets up with women of all shapes and sizes, from bodybuilder to frustrated slimmer, to find out what makes a body beautiful.\ntvnn                             : BBC Three\ntvsh                             : Cherry's Body Dilemmas\ntven                             : b013y2b1\ncatg                             : Factual,Lifestyle &amp; Leisure,Health &amp; Wellbeing\n\nVideo\nID                               : 1\nFormat                           : AVC\nFormat/Info                      : Advanced Video Codec\nFormat profile                   : &lt;a class=&quot;__cf_email__&quot; href=&quot;/cdn-cgi/l/email-protection&quot; data-cfemail=&quot;3d75545a557d7109130c&quot;&gt;[email&amp;#160;protected]&lt;/a&gt;&lt;script cf-hash='f9e31' type=&quot;text/javascript&quot;&gt;\n/* &lt;![CDATA[ */!function(){try{var t=&quot;currentScript&quot;in document?document.currentScript:function(){for(var t=document.getElementsByTagName(&quot;script&quot;),e=t.length;e--;)if(t[e].getAttribute(&quot;cf-hash&quot;))return t[e]}();if(t&amp;&amp;t.previousSibling){var e,r,n,i,c=t.previousSibling,a=c.getAttribute(&quot;data-cfemail&quot;);if(a){for(e=&quot;&quot;,r=parseInt(a.substr(0,2),16),n=2;a.length-n;n+=2)i=parseInt(a.substr(n,2),16)^r,e+=String.fromCharCode(i);e=document.createTextNode(e),c.parentNode.replaceChild(e,c)}}}catch(u){}}();/* ]]&gt; */&lt;/script&gt;\nFormat settings, CABAC           : Yes\nFormat settings, ReFrames        : 6 frames\nCodec ID                         : avc1\nCodec ID/Info                    : Advanced Video Coding\nDuration                         : 56mn 59s\nBit rate mode                    : Variable\nBit rate                         : 2 558 Kbps\nMaximum bit rate                 : 3 500 Kbps\nWidth                            : 1 280 pixels\nHeight                           : 720 pixels\nDisplay aspect ratio             : 16:9\nFrame rate mode                  : Constant\nFrame rate                       : 25.000 fps\nStandard                         : PAL\nColor space                      : YUV\nChroma subsampling               : 4:2:0\nBit depth                        : 8 bits\nScan type                        : Progressive\nBits/(Pixel*Frame)               : 0.111\nStream size                      : 1.02 GiB (96%)\n\nAudio\nID                               : 2\nFormat                           : AAC\nFormat/Info                      : Advanced Audio Codec\nFormat profile                   : HE-AAC / LC\nCodec ID                         : 40\nDuration                         : 56mn 59s\nBit rate mode                    : Constant\nBit rate                         : 96.0 Kbps\nChannel(s)                       : 2 channels\nChannel positions                : Front: L R\nSampling rate                    : 48.0 KHz / 24.0 KHz\nCompression mode                 : Lossy\nStream size                      : 38.6 MiB (4%)\n","torrent":{"xt":"urn:btih:a9b3e5109db26d87c4dba7be8bb20e3d3b134578","amp;dn":"BBC+Cherry%5C%27s+Body+Dilemmas+HD+720p+x264+Cherrys+%5Baularon%5D","amp;tr":["udp%3A%2F%2Ftracker.openbittorrent.com%3A80","udp%3A%2F%2Fopen.demonii.com%3A1337","udp%3A%2F%2Ftracker.coppersurfer.tk%3A6969","udp%3A%2F%2Fexodus.desync.com%3A6969"],"infoHash":"a9b3e5109db26d87c4dba7be8bb20e3d3b134578","infoHashBuffer":{"type":"Buffer","data":[169,179,229,16,157,178,109,135,196,219,167,190,139,178,14,61,59,19,69,120]},"announce":[],"urlList":[]}}